<?xml version="1.0" encoding="UTF-8"?>
<svg version="1.1" xmlns="http://www.w3.org/2000/svg" width="500" height="500">
<path d="M0 0 C165 0 330 0 500 0 C500 165 500 330 500 500 C335 500 170 500 0 500 C0 335 0 170 0 0 Z " fill="#FEFEFE" transform="translate(0,0)"/>
<path d="M0 0 C3.98301983 1.75807286 7.11088207 3.99974233 10 7.25 C11.64925527 11.78545199 11.86262454 16.50938024 10.26806641 21.11328125 C9.20999242 23.26978608 8.05101274 25.31681106 6.8125 27.375 C6.36688721 28.14247559 5.92127441 28.90995117 5.4621582 29.70068359 C-6.18949556 49.42194214 -20.13991613 67.49344532 -36 84 C-36.515625 84.53753906 -37.03125 85.07507813 -37.5625 85.62890625 C-44.64518417 92.96697566 -51.93636424 99.73204784 -60 106 C-60.98226563 106.78761719 -61.96453125 107.57523437 -62.9765625 108.38671875 C-110.57076402 146.24217277 -171.00779871 166.19856743 -231.625 166.25 C-232.346875 166.25067474 -233.06875 166.25134949 -233.8125 166.25204468 C-247.38447628 166.23207052 -260.59271474 165.18664333 -274 163 C-275.46566406 162.77449463 -275.46566406 162.77449463 -276.9609375 162.54443359 C-301.34789514 158.69196637 -324.97244512 150.74916238 -347.25 140.1875 C-348.92715088 139.39762695 -348.92715088 139.39762695 -350.63818359 138.59179688 C-357.10132754 135.39100178 -361.69619263 132.60761473 -365 126 C-365.62276311 119.97995657 -364.75336285 116.72897577 -361.484375 111.6640625 C-359.27261762 109.18456607 -357.04642429 108.16701065 -353.77124023 107.64428711 C-346.82012247 107.48661248 -342.1323948 109.32997393 -336.0625 112.5625 C-317.20192524 122.05493926 -296.90805981 129.11755823 -276.046875 132.64404297 C-274.66625449 132.88413656 -273.28852397 133.14139587 -271.9140625 133.41455078 C-257.98210483 136.16313763 -244.02277029 136.32120056 -229.875 136.375 C-228.94563629 136.38276459 -228.01627258 136.39052917 -227.05874634 136.39852905 C-213.76930455 136.48592396 -201.07547244 135.35321295 -188 133 C-187.2008316 132.85972382 -186.40166321 132.71944763 -185.57827759 132.57492065 C-164.25582807 128.81162327 -143.40071708 121.58443543 -124 112 C-123.22221191 111.61730957 -122.44442383 111.23461914 -121.64306641 110.84033203 C-110.54977782 105.32370566 -100.08226345 99.19912053 -90 92 C-88.93007813 91.236875 -87.86015625 90.47375 -86.7578125 89.6875 C-80.98392937 85.4562574 -75.56724334 80.97172429 -70.3046875 76.12109375 C-68.19643423 74.18078608 -66.04930368 72.3030018 -63.875 70.4375 C-56.06728802 63.5998845 -49.46090756 56.11027745 -43 48 C-42.1485157 46.97281259 -41.29561548 45.94679748 -40.44140625 44.921875 C-31.66098621 34.24442084 -24.71258944 22.49771591 -17.60131836 10.67456055 C-16.94981812 9.60782104 -16.94981812 9.60782104 -16.28515625 8.51953125 C-15.9075415 7.89667236 -15.52992676 7.27381348 -15.14086914 6.63208008 C-11.18264181 0.96960422 -6.62866997 -0.64148419 0 0 Z " fill="#020202" transform="translate(438,223)"/>
<path d="M0 0 C4.03654111 1.9828623 6.6500056 4.16579861 9 8 C10.00178387 11.0053516 10.13509192 13.02470335 10.15390015 16.16630554 C10.16250061 17.23587997 10.17110107 18.30545441 10.17996216 19.40744019 C10.18422211 20.58098053 10.18848206 21.75452087 10.19287109 22.96362305 C10.20104858 24.19966782 10.20922607 25.43571259 10.21765137 26.70921326 C10.24251509 30.81004513 10.25917806 34.91084012 10.2734375 39.01171875 C10.27879873 40.42528604 10.28417625 41.83885326 10.28956985 43.25242043 C10.31119613 49.13469782 10.32993084 55.01697251 10.34119225 60.89927959 C10.35741866 69.31869167 10.39056682 77.73764134 10.44759309 86.15687913 C10.48635366 92.08228099 10.50583224 98.00755951 10.51111281 103.93308479 C10.51475854 107.46919267 10.52669513 111.00480704 10.55921555 114.54077721 C10.59502008 118.49045587 10.59090971 122.43955914 10.58349609 126.3894043 C10.59990143 127.55282349 10.61630676 128.71624268 10.63320923 129.91491699 C10.57987222 136.86328968 9.65924179 141.67846292 5 147 C0.54646214 150.5784817 -3.50098135 150.62097337 -9.046875 150.484375 C-13.56945577 149.74257604 -16.33456029 147.67894522 -19 144 C-20.69693659 140.38022859 -21.25319922 137.52689707 -21.26742554 133.54176331 C-21.27595551 132.45813507 -21.28448547 131.37450684 -21.29327393 130.25804138 C-21.29236755 129.07919876 -21.29146118 127.90035614 -21.29052734 126.68579102 C-21.29724457 125.43648804 -21.30396179 124.18718506 -21.31088257 122.90002441 C-21.32661167 119.48053071 -21.33323671 116.06127989 -21.33451414 112.64176679 C-21.3359376 110.503756 -21.34021083 108.36577053 -21.34550858 106.22776604 C-21.36399825 98.76437645 -21.37218033 91.30105821 -21.37060547 83.83764648 C-21.36940364 76.88759639 -21.39051662 69.93785662 -21.4220928 62.98788506 C-21.44826407 57.01405206 -21.45897245 51.04032039 -21.45769465 45.06643051 C-21.45718536 41.50145193 -21.46285036 37.9367494 -21.48405075 34.37182808 C-21.50705288 30.39563033 -21.49790694 26.41985695 -21.48583984 22.44360352 C-21.50269836 20.67837593 -21.50269836 20.67837593 -21.51989746 18.87748718 C-21.47132138 12.58644704 -21.22454068 8.78134397 -17 4 C-16.34 3.21625 -15.68 2.4325 -15 1.625 C-10.17622912 -0.9878759 -5.35825722 -0.72605111 0 0 Z " fill="#020202" transform="translate(181,99)"/>
<path d="M0 0 C4.03654111 1.9828623 6.6500056 4.16579861 9 8 C10.00178387 11.0053516 10.13509192 13.02470335 10.15390015 16.16630554 C10.16250061 17.23587997 10.17110107 18.30545441 10.17996216 19.40744019 C10.18422211 20.58098053 10.18848206 21.75452087 10.19287109 22.96362305 C10.20104858 24.19966782 10.20922607 25.43571259 10.21765137 26.70921326 C10.24251509 30.81004513 10.25917806 34.91084012 10.2734375 39.01171875 C10.27879873 40.42528604 10.28417625 41.83885326 10.28956985 43.25242043 C10.31119613 49.13469782 10.32993084 55.01697251 10.34119225 60.89927959 C10.35741866 69.31869167 10.39056682 77.73764134 10.44759309 86.15687913 C10.48635366 92.08228099 10.50583224 98.00755951 10.51111281 103.93308479 C10.51475854 107.46919267 10.52669513 111.00480704 10.55921555 114.54077721 C10.59502008 118.49045587 10.59090971 122.43955914 10.58349609 126.3894043 C10.59990143 127.55282349 10.61630676 128.71624268 10.63320923 129.91491699 C10.57986405 136.86435299 9.65809736 141.67686803 5 147 C0.5214475 150.61150474 -3.54381339 150.56469423 -9.1171875 150.4140625 C-13.60614997 149.76930637 -15.07455807 148.45052125 -18 145 C-21.92509228 139.20326229 -21.42987503 133.3137039 -21.40405273 126.57226562 C-21.41091599 125.32281662 -21.41777924 124.07336761 -21.42485046 122.78605652 C-21.4399873 119.3706439 -21.44162063 115.95577835 -21.43590808 112.54037285 C-21.43281157 109.68497647 -21.43891368 106.8296292 -21.44494683 103.97423983 C-21.45897826 97.23685376 -21.45744185 90.49959454 -21.44604492 83.76220703 C-21.43455998 76.81950451 -21.44864851 69.87718811 -21.4754414 62.93453646 C-21.49761367 56.96491675 -21.50423251 50.99541812 -21.49836498 45.02576017 C-21.49499842 41.46416693 -21.49739038 37.90282129 -21.51461601 34.34126282 C-21.53298668 30.36993317 -21.51888224 26.39907698 -21.50170898 22.42773438 C-21.51137695 21.25248703 -21.52104492 20.07723969 -21.53100586 18.86637878 C-21.47403733 12.58102572 -21.21803992 8.77824619 -17 4 C-16.34 3.21625 -15.68 2.4325 -15 1.625 C-10.17622912 -0.9878759 -5.35825722 -0.72605111 0 0 Z " fill="#020202" transform="translate(315,99)"/>
</svg>
