<?xml version="1.0" encoding="UTF-8"?>
<svg version="1.1" xmlns="http://www.w3.org/2000/svg" width="500" height="127">
<path d="M0 0 C3.625 0.25 3.625 0.25 5.5625 1.3125 C7.25656451 4.40167647 7.37435689 6.89312482 6.625 10.25 C-5.19823348 37.51250744 -31.60238509 56.02196751 -58.39453125 66.69140625 C-60.375 67.25 -60.375 67.25 -64.375 67.25 C-64.705 67.91 -65.035 68.57 -65.375 69.25 C-93.60246398 77.63149197 -125.17524853 72.02505973 -150.9609375 59.2890625 C-153.375 57.25 -153.375 57.25 -154.35546875 53.7109375 C-154.375 50.25 -154.375 50.25 -152.3125 47.25 C-149.375 45.25 -149.375 45.25 -146.75 45.125 C-142.64778139 46.4924062 -138.8348467 48.27615422 -134.9609375 50.19140625 C-132.22373227 51.50256705 -132.22373227 51.50256705 -128.375 51.25 C-128.375 51.91 -128.375 52.57 -128.375 53.25 C-96.94273706 59.96793711 -67.78286045 58.46964972 -40.0078125 40.72265625 C-25.53520098 31.08323458 -14.59143768 18.67233041 -5.8359375 3.734375 C-3.80571115 0.28190453 -3.80571115 0.28190453 0 0 Z " fill="#010101" transform="translate(165.375,53.75)"/>
<path d="M0 0 C3.02286884 1.38548155 4.66871425 2.66871425 7 5 C7.763125 4.175 8.52625 3.35 9.3125 2.5 C13.08828235 -0.64798006 16.59328069 -0.65848451 21.37109375 -0.41796875 C25.14448398 0.18196105 27.26975778 1.33976399 30 4 C31.96902919 8.61857511 32.23523226 12.59596701 32.1953125 17.5859375 C32.1924826 18.28772125 32.18965271 18.989505 32.18673706 19.71255493 C32.17562512 21.93355028 32.15053834 24.15412845 32.125 26.375 C32.11495854 27.88931705 32.10583473 29.40364049 32.09765625 30.91796875 C32.07571554 34.61211258 32.04124875 38.30601551 32 42 C28.37 42 24.74 42 21 42 C20.970271 40.75126099 20.970271 40.75126099 20.93994141 39.47729492 C20.86179258 36.385235 20.77509794 33.29356617 20.68261719 30.2019043 C20.62555908 28.2070464 20.57835558 26.2119146 20.53125 24.21679688 C20.47324219 22.33637695 20.47324219 22.33637695 20.4140625 20.41796875 C20.3826416 19.26063232 20.3512207 18.1032959 20.31884766 16.91088867 C20.20528967 13.80872972 20.20528967 13.80872972 18 11 C14.56769552 11.26393501 14.56769552 11.26393501 11 12 C8.67547376 15.48678936 8.70226266 17.06967571 8.5859375 21.19921875 C8.54726563 22.40771484 8.50859375 23.61621094 8.46875 24.86132812 C8.42234375 26.7552832 8.42234375 26.7552832 8.375 28.6875 C8.33632813 29.96173828 8.29765625 31.23597656 8.2578125 32.54882812 C8.16342314 35.69907292 8.0778417 38.84930991 8 42 C4.37 42 0.74 42 -3 42 C-3.02505615 41.19780029 -3.0501123 40.39560059 -3.07592773 39.5690918 C-3.19182043 35.94172926 -3.31457751 32.31463083 -3.4375 28.6875 C-3.47681641 27.42486328 -3.51613281 26.16222656 -3.55664062 24.86132812 C-3.59853516 23.65283203 -3.64042969 22.44433594 -3.68359375 21.19921875 C-3.72025146 20.08377686 -3.75690918 18.96833496 -3.79467773 17.8190918 C-3.88931209 14.92126429 -3.88931209 14.92126429 -5 12 C-7.80045046 11.14349347 -7.80045046 11.14349347 -11 11 C-13.89346741 13.12605251 -14.8835651 14.37450091 -15.54589844 17.93261719 C-15.5668457 19.04282227 -15.58779297 20.15302734 -15.609375 21.296875 C-15.64160156 22.50214844 -15.67382812 23.70742187 -15.70703125 24.94921875 C-15.72830078 26.83060547 -15.72830078 26.83060547 -15.75 28.75 C-15.77964844 30.01972656 -15.80929687 31.28945312 -15.83984375 32.59765625 C-15.91053951 35.73183485 -15.96324012 38.86526956 -16 42 C-19.63 42 -23.26 42 -27 42 C-27 28.47 -27 14.94 -27 1 C-23.7 1 -20.4 1 -17 1 C-17 1.99 -17 2.98 -17 4 C-16.05125 3.34 -15.1025 2.68 -14.125 2 C-9.53450548 -0.62180683 -5.16624431 -0.74428943 0 0 Z " fill="#010101" transform="translate(279,50)"/>
<path d="M0 0 C3.3 0 6.6 0 10 0 C11.51421001 1.51421001 11.21309856 2.92472768 11.31640625 5.03515625 C11.37924805 6.24848633 11.37924805 6.24848633 11.44335938 7.48632812 C11.48267578 8.33646484 11.52199219 9.18660156 11.5625 10.0625 C11.60568359 10.91650391 11.64886719 11.77050781 11.69335938 12.65039062 C11.79976702 14.76672037 11.90041731 16.88333813 12 19 C12.71285156 18.51402344 13.42570312 18.02804688 14.16015625 17.52734375 C18.68945304 15.09136707 22.98069292 15.34306128 28 16 C32.90946693 18.32083891 35.35714805 21.30159653 38 26 C40.40988243 33.14931788 40.18599579 43.23549406 37.3125 50.1875 C34.88074416 54.7664445 31.94343398 57.35218867 27 59 C21.30917105 59.50156459 16.65731863 59.7258549 12 56 C11.67 56.66 11.34 57.32 11 58 C7.37 58 3.74 58 0 58 C0 38.86 0 19.72 0 0 Z M14.375 27.5 C11.26738321 30.77117557 10.33385618 33.5346736 10 38 C10.6270385 42.18025667 11.40606048 44.32121198 14.1875 47.5 C17.95738812 49.510607 19.94772627 49.2006737 24 48 C26.85785003 45.71371998 27.30571271 43.16845457 27.875 39.6875 C28.25959508 34.93107916 27.42699247 32.10078039 25 28 C21.46555625 25.37767077 18.24604777 25.2879727 14.375 27.5 Z " fill="#010101" transform="translate(321,34)"/>
<path d="M0 0 C5.754375 -0.020625 11.50875 -0.04125 17.4375 -0.0625 C19.25564209 -0.071604 21.07378418 -0.08070801 22.94702148 -0.09008789 C24.38004482 -0.09300711 25.81306898 -0.09555566 27.24609375 -0.09765625 C27.99669067 -0.10277222 28.7472876 -0.10788818 29.52062988 -0.11315918 C31.34747601 -0.11346992 33.17421683 -0.06231113 35 0 C37.60341656 2.60341656 36 7.31821299 36 11 C27.75 11 19.5 11 11 11 C11 14.63 11 18.26 11 22 C18.26 22 25.52 22 33 22 C33 25.3 33 28.6 33 32 C25.74 32 18.48 32 11 32 C11.33 33.32 11.66 34.64 12 36 C11.67 38.97 11.34 41.94 11 45 C19.58 45 28.16 45 37 45 C37 48.3 37 51.6 37 55 C24.79 55 12.58 55 0 55 C0 36.85 0 18.7 0 0 Z " fill="#010101" transform="translate(207,37)"/>
<path d="M0 0 C3.63 0 7.26 0 11 0 C20 21.1352459 20 21.1352459 20 26 C20.66 26 21.32 26 22 26 C22.12117188 25.443125 22.24234375 24.88625 22.3671875 24.3125 C23.49330078 19.18435338 24.70485307 14.08807722 26 9 C26.66 9 27.32 9 28 9 C28.66 6.03 29.32 3.06 30 0 C33.96 0 37.92 0 42 0 C39.51058069 8.936377 36.2897543 17.56284218 33.01196289 26.23291016 C32.060531 28.75521994 31.12094605 31.28174709 30.18164062 33.80859375 C29.57103193 35.42995862 28.95972785 37.05106182 28.34765625 38.671875 C28.07147964 39.41886658 27.79530304 40.16585815 27.51075745 40.93548584 C25.13616657 47.15548869 22.087988 52.56852658 17 57 C13.60607349 58.13130884 10.94665128 58.1329194 7.375 58.125 C6.20710938 58.12757812 5.03921875 58.13015625 3.8359375 58.1328125 C1 58 1 58 0 57 C-0.13568319 53.33655389 -0.16461426 50.49384279 1 47 C1.60328125 47.03480469 2.2065625 47.06960937 2.828125 47.10546875 C7.92525488 47.3514449 7.92525488 47.3514449 12.5625 45.5 C13.036875 45.005 13.51125 44.51 14 44 C13.42878522 38.58161985 12.07611488 34.02943316 10.05859375 28.984375 C9.77146011 28.24672913 9.48432648 27.50908325 9.18849182 26.74908447 C8.27851892 24.41323416 7.35890418 22.08136236 6.4375 19.75 C5.51340027 17.4040419 4.59155502 15.05729627 3.67579651 12.70806885 C3.10773976 11.25144953 2.53478534 9.79672853 1.95640564 8.34417725 C0.8093158 5.40826364 0 3.1824543 0 0 Z " fill="#010101" transform="translate(364,51)"/>
<path d="M0 0 C2.9823244 1.89649058 4.52872648 4.02866994 5.81640625 7.24609375 C6.13525391 9.90332031 6.13525391 9.90332031 6.23046875 12.88671875 C6.28847656 14.49160156 6.28847656 14.49160156 6.34765625 16.12890625 C6.37859375 17.24007812 6.40953125 18.35125 6.44140625 19.49609375 C6.49941406 21.18605469 6.49941406 21.18605469 6.55859375 22.91015625 C6.65277961 25.68863923 6.73840211 28.46711709 6.81640625 31.24609375 C8.13640625 31.57609375 9.45640625 31.90609375 10.81640625 32.24609375 C11.31140625 36.20609375 11.31140625 36.20609375 11.81640625 40.24609375 C8.42243434 42.65015719 5.64363122 42.3381319 1.72265625 41.73828125 C-0.74170337 41.10199168 -2.35624272 39.99730515 -4.18359375 38.24609375 C-4.61671875 38.72046875 -5.04984375 39.19484375 -5.49609375 39.68359375 C-9.00609513 42.93359503 -13.22989838 42.52537417 -17.7421875 42.453125 C-21.05056664 42.17257445 -22.75275494 41.529609 -25.18359375 39.24609375 C-28.05780827 34.45573622 -28.47332363 30.96505947 -27.99609375 25.45703125 C-26.75792438 22.08778192 -24.96102581 20.49696325 -22.18359375 18.24609375 C-19.63749496 17.16518337 -17.06711594 16.52955655 -14.37109375 15.93359375 C-13.67822266 15.76537109 -12.98535156 15.59714844 -12.27148438 15.42382812 C-10.57927661 15.01536418 -8.88188509 14.62847633 -7.18359375 14.24609375 C-6.85359375 12.92609375 -6.52359375 11.60609375 -6.18359375 10.24609375 C-12.51314859 9.80957273 -14.89621812 10.52089728 -20.18359375 14.24609375 C-22.37109375 14.30859375 -22.37109375 14.30859375 -24.18359375 13.24609375 C-26.05859375 10.93359375 -26.05859375 10.93359375 -27.18359375 8.24609375 C-26.48291368 4.94288769 -24.96936625 4.08656264 -22.24609375 2.05859375 C-15.90546658 -1.69402233 -7.03527877 -2.42899607 0 0 Z M-10.68359375 23.49609375 C-11.47765625 23.728125 -12.27171875 23.96015625 -13.08984375 24.19921875 C-15.6451164 25.47685507 -16.1866204 26.62362037 -17.18359375 29.24609375 C-15.58154756 31.4332218 -15.58154756 31.4332218 -13.18359375 33.24609375 C-10.07432328 33.57517542 -10.07432328 33.57517542 -7.18359375 32.24609375 C-4.75009627 28.59584754 -4.18359375 26.66905173 -4.18359375 22.24609375 C-6.56575828 22.24609375 -8.40437524 22.8004881 -10.68359375 23.49609375 Z " fill="#010101" transform="translate(457.18359375,50.75390625)"/>
<path d="M0 0 C2.49526572 3.74289857 2.36650304 6.77747366 2.44921875 11.12109375 C2.47145508 11.92944168 2.49369141 12.73778961 2.51660156 13.57063293 C2.58464965 16.19279122 2.63720402 18.81494518 2.6875 21.4375 C2.70712799 22.32215942 2.72675598 23.20681885 2.74697876 24.11828613 C2.96792063 34.16467657 3.16169141 44.20789687 2.6875 54.25 C2.65293701 55.02657959 2.61837402 55.80315918 2.58276367 56.60327148 C2.35383919 60.20286827 2.04777612 61.92833583 0 65 C-3.56706999 66.10975511 -5.34477704 66.2766497 -8.8125 64.8125 C-11.32582344 62.73003201 -11.47592694 62.11614427 -12 59 C-12.09983183 57.22473101 -12.14815319 55.4462393 -12.16113281 53.66821289 C-12.17554413 52.07119286 -12.17554413 52.07119286 -12.19024658 50.44190979 C-12.19449646 49.29705612 -12.19874634 48.15220245 -12.203125 46.97265625 C-12.20882507 45.79158798 -12.21452515 44.61051971 -12.22039795 43.3936615 C-12.22984106 40.89632054 -12.23637919 38.39896716 -12.24023438 35.90161133 C-12.24995378 32.0806717 -12.28099016 28.26026685 -12.3125 24.43945312 C-12.31902888 22.01302403 -12.3242798 19.58659108 -12.328125 17.16015625 C-12.3404718 16.01732681 -12.3528186 14.87449738 -12.36553955 13.69703674 C-12.36253845 12.62920456 -12.35953735 11.56137238 -12.35644531 10.46118164 C-12.36191376 9.05697716 -12.36191376 9.05697716 -12.36749268 7.62440491 C-11.92112195 4.43670189 -10.92338633 2.56553145 -9 0 C-5.46474216 -1.17841928 -3.5797952 -0.91399027 0 0 Z " fill="#000000" transform="translate(117,1)"/>
<path d="M0 0 C6.22914854 0.46141841 6.22914854 0.46141841 8.70329285 2.19006348 C10.53323451 4.74428572 10.37421999 6.58341404 10.37231445 9.70898438 C10.37854324 10.88029907 10.38477203 12.05161377 10.39118958 13.25842285 C10.38197983 14.52408081 10.37277008 15.78973877 10.36328125 17.09375 C10.36377975 18.39195679 10.36427826 19.69016357 10.36479187 21.02770996 C10.36470219 23.77493918 10.35428138 26.52187469 10.33618164 29.26904297 C10.31349428 32.78985672 10.31295067 36.31024137 10.31969929 39.83110809 C10.32384487 43.18953768 10.31186672 46.54783519 10.30078125 49.90625 C10.30169266 51.17190796 10.30260406 52.43756592 10.30354309 53.74157715 C10.29401108 54.91289185 10.28447906 56.08420654 10.2746582 57.29101562 C10.27005081 58.32343384 10.26544342 59.35585205 10.26069641 60.41955566 C10 63 10 63 8 66 C4.40028568 67.11991112 2.66213582 67.29428259 -0.8125 65.75 C-3 64 -3 64 -4 61 C-4.10280185 59.23215222 -4.14847645 57.46073045 -4.16113281 55.68994141 C-4.17074036 54.6051651 -4.1803479 53.52038879 -4.19024658 52.40274048 C-4.19449646 51.23085175 -4.19874634 50.05896301 -4.203125 48.8515625 C-4.20882507 47.64688324 -4.21452515 46.44220398 -4.22039795 45.20101929 C-4.22985005 42.65062336 -4.23638276 40.10021522 -4.24023438 37.54980469 C-4.24994384 33.64757002 -4.28096779 29.7458611 -4.3125 25.84375 C-4.31902965 23.36719063 -4.32428027 20.89062749 -4.328125 18.4140625 C-4.3404718 17.24622223 -4.3528186 16.07838196 -4.36553955 14.87515259 C-4.36253845 13.78407196 -4.35953735 12.69299133 -4.35644531 11.56884766 C-4.36009094 10.61193024 -4.36373657 9.65501282 -4.36749268 8.6690979 C-3.8886647 5.19137214 -2.49782407 2.49782407 0 0 Z " fill="#000000" transform="translate(52,0)"/>
<path d="M0 0 C3.63 0 7.26 0 11 0 C11 13.53 11 27.06 11 41 C7.37 41 3.74 41 0 41 C0 27.47 0 13.94 0 0 Z " fill="#000000" transform="translate(474,51)"/>
<path d="M0 0 C1.9375 1 1.9375 1 3 3 C3.46000079 5.76000474 3.50420748 8.24404774 3 11 C1.4375 13.0625 1.4375 13.0625 -1 14 C-7.32727273 13.67272727 -7.32727273 13.67272727 -10 11 C-10.55239643 4.03980504 -10.55239643 4.03980504 -8.9375 1 C-5.86784865 -0.58433618 -3.38318857 -0.36248449 0 0 Z " fill="#010101" transform="translate(420,79)"/>
<path d="M0 0 C1.9375 1.0625 1.9375 1.0625 3 3 C3.38991688 7.36706908 3.46324069 9.30513897 1 13 C-2.16912098 13.89562115 -4.17702854 14.28915213 -7.3125 13.1875 C-9 12 -9 12 -10 10 C-10.44948064 3.81964117 -10.44948064 3.81964117 -8.9375 1.0625 C-5.88023824 -0.6140629 -3.4093712 -0.36528977 0 0 Z " fill="#020202" transform="translate(483,34)"/>
<path d="" fill="#FFFFFF" transform="translate(0,0)"/>
<path d="" fill="#FFFFFF" transform="translate(0,0)"/>
<path d="" fill="#000000" transform="translate(0,0)"/>
<path d="" fill="#FFFFFF" transform="translate(0,0)"/>
<path d="" fill="#000000" transform="translate(0,0)"/>
<path d="" fill="#FFFFFF" transform="translate(0,0)"/>
<path d="" fill="#FFFFFF" transform="translate(0,0)"/>
<path d="" fill="#FFFFFF" transform="translate(0,0)"/>
<path d="" fill="#FFFFFF" transform="translate(0,0)"/>
<path d="" fill="#FFFFFF" transform="translate(0,0)"/>
<path d="" fill="#000000" transform="translate(0,0)"/>
<path d="" fill="#FFFFFF" transform="translate(0,0)"/>
<path d="" fill="#FFFFFF" transform="translate(0,0)"/>
<path d="" fill="#FFFFFF" transform="translate(0,0)"/>
<path d="" fill="#FFFFFF" transform="translate(0,0)"/>
<path d="" fill="#000000" transform="translate(0,0)"/>
<path d="" fill="#000000" transform="translate(0,0)"/>
<path d="" fill="#FFFFFF" transform="translate(0,0)"/>
<path d="" fill="#FFFFFF" transform="translate(0,0)"/>
<path d="" fill="#000000" transform="translate(0,0)"/>
<path d="" fill="#FFFFFF" transform="translate(0,0)"/>
<path d="" fill="#FFFFFF" transform="translate(0,0)"/>
<path d="" fill="#FFFFFF" transform="translate(0,0)"/>
<path d="" fill="#FFFFFF" transform="translate(0,0)"/>
<path d="" fill="#FFFFFF" transform="translate(0,0)"/>
<path d="" fill="#FFFFFF" transform="translate(0,0)"/>
<path d="" fill="#FFFFFF" transform="translate(0,0)"/>
<path d="" fill="#FFFFFF" transform="translate(0,0)"/>
<path d="" fill="#FFFFFF" transform="translate(0,0)"/>
<path d="" fill="#FFFFFF" transform="translate(0,0)"/>
<path d="" fill="#FFFFFF" transform="translate(0,0)"/>
<path d="" fill="#FFFFFF" transform="translate(0,0)"/>
<path d="" fill="#FFFFFF" transform="translate(0,0)"/>
<path d="" fill="#000000" transform="translate(0,0)"/>
<path d="" fill="#FFFFFF" transform="translate(0,0)"/>
<path d="" fill="#FFFFFF" transform="translate(0,0)"/>
<path d="" fill="#FFFFFF" transform="translate(0,0)"/>
<path d="" fill="#FFFFFF" transform="translate(0,0)"/>
<path d="" fill="#FFFFFF" transform="translate(0,0)"/>
<path d="" fill="#FFFFFF" transform="translate(0,0)"/>
<path d="" fill="#FFFFFF" transform="translate(0,0)"/>
<path d="" fill="#FFFFFF" transform="translate(0,0)"/>
<path d="" fill="#FFFFFF" transform="translate(0,0)"/>
<path d="" fill="#FFFFFF" transform="translate(0,0)"/>
<path d="" fill="#000000" transform="translate(0,0)"/>
<path d="" fill="#FFFFFF" transform="translate(0,0)"/>
<path d="" fill="#FFFFFF" transform="translate(0,0)"/>
<path d="" fill="#FFFFFF" transform="translate(0,0)"/>
<path d="" fill="#FFFFFF" transform="translate(0,0)"/>
<path d="" fill="#FFFFFF" transform="translate(0,0)"/>
<path d="" fill="#FFFFFF" transform="translate(0,0)"/>
<path d="" fill="#FFFFFF" transform="translate(0,0)"/>
<path d="" fill="#FFFFFF" transform="translate(0,0)"/>
<path d="" fill="#FFFFFF" transform="translate(0,0)"/>
<path d="" fill="#FFFFFF" transform="translate(0,0)"/>
<path d="" fill="#FFFFFF" transform="translate(0,0)"/>
<path d="" fill="#FFFFFF" transform="translate(0,0)"/>
<path d="" fill="#FFFFFF" transform="translate(0,0)"/>
<path d="" fill="#FFFFFF" transform="translate(0,0)"/>
<path d="" fill="#FFFFFF" transform="translate(0,0)"/>
<path d="" fill="#FFFFFF" transform="translate(0,0)"/>
<path d="" fill="#FFFFFF" transform="translate(0,0)"/>
<path d="" fill="#FFFFFF" transform="translate(0,0)"/>
<path d="" fill="#FFFFFF" transform="translate(0,0)"/>
<path d="" fill="#FFFFFF" transform="translate(0,0)"/>
<path d="" fill="#FFFFFF" transform="translate(0,0)"/>
<path d="" fill="#FFFFFF" transform="translate(0,0)"/>
<path d="" fill="#FFFFFF" transform="translate(0,0)"/>
<path d="" fill="#000000" transform="translate(0,0)"/>
<path d="" fill="#FFFFFF" transform="translate(0,0)"/>
</svg>
