<?xml version="1.0" encoding="UTF-8"?>
<svg version="1.1" xmlns="http://www.w3.org/2000/svg" width="497" height="127">
<path d="M0 0 C3.6875 0.25 3.6875 0.25 6.125 1.375 C7.6875 3.25 7.6875 3.25 8.00390625 5.9453125 C7.62451274 9.90786698 6.21072625 12.66418482 4.1875 16 C3.82366211 16.61343262 3.45982422 17.22686523 3.08496094 17.85888672 C-12.31860214 43.27675936 -38.21408108 61.84766529 -66.97729492 69.03613281 C-94.95876707 75.7000071 -126.1312773 73.42561965 -151.38671875 58.82421875 C-153.3125 57.25 -153.3125 57.25 -154.625 53.625 C-154.12382075 48.21226415 -154.12382075 48.21226415 -152.3125 46.25 C-145.80398859 44.42931838 -141.63478532 46.32308508 -135.625 49 C-110.38698264 59.64624733 -83.97128126 60.11599055 -58.3125 50.25 C-35.49081729 40.63164594 -17.60179903 24.559817 -5.37109375 3.078125 C-3.75267707 0.28322091 -3.75267707 0.28322091 0 0 Z " fill="#FDFDFD" transform="translate(162.3125,54.75)"/>
<path d="M0 0 C3.95996664 5.14795664 4.12366686 9.82528578 4.09765625 16.171875 C4.0962413 16.8542926 4.09482635 17.53671021 4.09336853 18.23980713 C4.08779084 20.40991684 4.07524254 22.5799217 4.0625 24.75 C4.05748211 26.22525892 4.05291971 27.70051947 4.04882812 29.17578125 C4.03782875 32.78388798 4.02057953 36.39193375 4 40 C0.04 40 -3.92 40 -8 40 C-8.33 29.77 -8.66 19.54 -9 9 C-15.35595543 8.41717357 -15.35595543 8.41717357 -17.90551758 10.09887695 C-19.5096745 12.8853079 -19.43929136 15.21667795 -19.51171875 18.41796875 C-19.54716797 19.67158203 -19.58261719 20.92519531 -19.61914062 22.21679688 C-19.64169922 23.52712891 -19.66425781 24.83746094 -19.6875 26.1875 C-19.72067666 27.52282013 -19.75516666 28.85810832 -19.79101562 30.19335938 C-19.87362057 33.46215504 -19.94273229 36.73067812 -20 40 C-23.96 40 -27.92 40 -32 40 C-32.01981934 39.16750732 -32.03963867 38.33501465 -32.06005859 37.47729492 C-32.13820742 34.385235 -32.22490206 31.29356617 -32.31738281 28.2019043 C-32.37444092 26.2070464 -32.42164442 24.2119146 -32.46875 22.21679688 C-32.50742187 20.96318359 -32.54609375 19.70957031 -32.5859375 18.41796875 C-32.63306885 16.68196411 -32.63306885 16.68196411 -32.68115234 14.91088867 C-32.79471033 11.80872972 -32.79471033 11.80872972 -35 9 C-37.3431213 9.25561323 -39.67843403 9.59270772 -42 10 C-43.36616579 12.73233158 -43.19821243 15.01190444 -43.28125 18.06640625 C-43.31863281 19.27361328 -43.35601562 20.48082031 -43.39453125 21.72460938 C-43.46495102 24.28710643 -43.53526319 26.84960644 -43.60546875 29.41210938 C-43.64285156 30.61802734 -43.68023437 31.82394531 -43.71875 33.06640625 C-43.76418945 34.7361853 -43.76418945 34.7361853 -43.81054688 36.43969727 C-44 39 -44 39 -45 40 C-48.63 40 -52.26 40 -56 40 C-56 26.47 -56 12.94 -56 -1 C-50.555 -1.495 -50.555 -1.495 -45 -2 C-44.67 -1.01 -44.34 -0.02 -44 1 C-42.94619141 0.27103516 -42.94619141 0.27103516 -41.87109375 -0.47265625 C-37.10041598 -3.01052701 -32.27284036 -2.67600517 -27 -2 C-24.48535677 -0.92627988 -23.06688055 0.16277284 -21 2 C-20.61328125 1.53335938 -20.2265625 1.06671875 -19.828125 0.5859375 C-14.24559469 -4.25702683 -5.87147177 -3.79199219 0 0 Z " fill="#FDFDFD" transform="translate(305,53)"/>
<path d="M0 0 C3.63 0 7.26 0 11 0 C13.11925604 2.11925604 12.41831017 6.6196093 12.5625 9.5625 C12.60568359 10.36880859 12.64886719 11.17511719 12.69335938 12.00585938 C12.79975262 14.00368805 12.90040888 16.0018207 13 18 C13.99 17.34 14.98 16.68 16 16 C22.04356481 15.35435208 27.90826301 15.20658252 33.625 17.375 C39.78744728 24.18612594 40.61161137 31.77978084 40.3203125 40.72265625 C39.63785723 47.70533881 37.52691081 52.41670811 32 57 C27.49313888 59.7136048 23.11902891 59.41853695 18 59 C14.375 58 14.375 58 12 57 C11.505 57.495 11.505 57.495 11 58 C7.37 58 3.74 58 0 58 C0 38.86 0 19.72 0 0 Z M12 31 C10.43132894 36.98055843 10.87791716 41.59441029 14 47 C16.53213239 49.18287275 17.71515668 49.01743939 21.0625 48.8125 C24.08460663 47.97659817 25.22127815 47.52765737 27 45 C28.52503844 41.25672382 28.45058938 36.97625365 28 33 C26.36312815 29.41447119 25.31027417 28.20684945 22 26 C16.98653521 25.07646701 14.94821306 27.06904925 12 31 Z " fill="#FDFDFD" transform="translate(318,35)"/>
<path d="M0 0 C0 3.63 0 7.26 0 11 C-8.25 11 -16.5 11 -25 11 C-25 14.63 -25 18.26 -25 22 C-17.74 21.67 -10.48 21.34 -3 21 C-3 24.63 -3 28.26 -3 32 C-10.26 32 -17.52 32 -25 32 C-25 36.29 -25 40.58 -25 45 C-16.42 45 -7.84 45 1 45 C1 48.3 1 51.6 1 55 C-11.54 55 -24.08 55 -37 55 C-37 37.18 -37 19.36 -37 1 C-31.080625 0.835 -25.16125 0.67 -19.0625 0.5 C-17.19215088 0.44779297 -15.32180176 0.39558594 -13.39477539 0.34179688 C-11.92073598 0.30077025 -10.44669629 0.25975391 -8.97265625 0.21875 C-7.81437317 0.1863623 -7.81437317 0.1863623 -6.63269043 0.15332031 C-1.1140718 0 -1.1140718 0 0 0 Z " fill="#FDFDFD" transform="translate(241,38)"/>
<path d="M0 0 C3.96 0 7.92 0 12 0 C14.97 7.92 17.94 15.84 21 24 C23.27057162 21.72942838 23.74161714 20.23873248 24.7265625 17.2109375 C25.190625 15.79941406 25.190625 15.79941406 25.6640625 14.359375 C25.98117187 13.37453125 26.29828125 12.3896875 26.625 11.375 C26.94984375 10.38242187 27.2746875 9.38984375 27.609375 8.3671875 C28.41163602 5.91321261 29.20651693 3.45682725 30 1 C35.94 0.505 35.94 0.505 42 0 C43.40139537 4.20418612 41.75479174 7.01682416 40.2109375 10.96484375 C39.91063629 11.75339249 39.61033508 12.54194122 39.30093384 13.35438538 C38.33429849 15.88551228 37.35463822 18.41138129 36.375 20.9375 C35.73746747 22.60450671 35.1007398 24.27182147 34.46484375 25.93945312 C32.9416831 29.92262041 31.39758354 33.89708324 29.837677 37.86599731 C29.3047883 39.22354434 28.77474197 40.58221312 28.24850464 41.94235229 C27.59861646 43.61903359 26.93460327 45.29022089 26.26953125 46.9609375 C25.91479736 47.85989746 25.56006348 48.75885742 25.19458008 49.68505859 C22.94384818 54.04668537 19.32887352 56.83556324 15 59 C12.83509805 59.09685088 10.66706197 59.12979438 8.5 59.125 C7.3346875 59.12757812 6.169375 59.13015625 4.96875 59.1328125 C2 59 2 59 0 58 C0.33 54.7 0.66 51.4 1 48 C2.381875 48.103125 3.76375 48.20625 5.1875 48.3125 C7.57320504 48.59608528 7.57320504 48.59608528 10 48 C11.70574544 46.37335067 13.37644657 44.70869243 15 43 C13.52539613 39.10783512 12.05035619 35.21583584 10.57495117 31.32397461 C10.07548897 30.0063092 9.57613593 28.6886024 9.0769043 27.37084961 C5.74290583 18.57083955 2.38711994 9.77973473 -1 1 C-0.67 0.67 -0.34 0.34 0 0 Z " fill="#FDFDFD" transform="translate(361,51)"/>
<path d="M0 0 C1.66869141 -0.02126953 1.66869141 -0.02126953 3.37109375 -0.04296875 C7.32782848 0.24276852 10.23495701 1.09701825 13.3125 3.625 C15.789421 6.72115125 15.73800481 9.92612979 15.87890625 13.73046875 C15.92080078 14.80361328 15.96269531 15.87675781 16.00585938 16.98242188 C16.04517578 18.10197266 16.08449219 19.22152344 16.125 20.375 C16.16818359 21.50615234 16.21136719 22.63730469 16.25585938 23.80273438 C16.36199099 26.59753354 16.46404385 29.39242162 16.5625 32.1875 C17.8825 32.1875 19.2025 32.1875 20.5625 32.1875 C21.0575 36.6425 21.0575 36.6425 21.5625 41.1875 C17.06689012 43.43530494 14.29391659 43.24733732 9.5625 42.1875 C8.2321875 41.56875 8.2321875 41.56875 6.875 40.9375 C6.111875 40.69 5.34875 40.4425 4.5625 40.1875 C3.4796875 40.868125 3.4796875 40.868125 2.375 41.5625 C-1.80136725 43.97551219 -5.71940173 43.76268826 -10.4375 43.1875 C-14.14872736 41.60825432 -16.51376148 39.74641627 -18.4375 36.1875 C-19.64179576 31.44993984 -19.97455531 27.53673768 -17.4375 23.1875 C-13.74327611 18.16335551 -7.98476753 16.79727822 -2.07421875 15.78125 C-0.20018009 15.54158609 1.68095759 15.35854931 3.5625 15.1875 C3.2325 13.8675 2.9025 12.5475 2.5625 11.1875 C-2.58293016 10.88482764 -5.16729782 11.37815646 -9.4375 14.1875 C-12.25 14.875 -12.25 14.875 -14.4375 15.1875 C-16.30752294 12.56946788 -17.42055118 10.8824016 -17.5 7.625 C-15.96429265 4.10190666 -13.75273039 3.00762649 -10.4375 1.1875 C-6.97212927 0.03488756 -3.63468939 0.02100977 0 0 Z M-0.875 24.5625 C-1.67808594 24.81773438 -2.48117187 25.07296875 -3.30859375 25.3359375 C-5.60496699 26.09235413 -5.60496699 26.09235413 -7.4375 28.1875 C-7.07068342 31.12203261 -6.57312754 32.05187246 -4.4375 34.1875 C-1.43456929 34.25698565 -1.43456929 34.25698565 1.5625 33.1875 C4.30719461 29.89386647 4.92553085 27.42285988 4.5625 23.1875 C2.68033645 23.1875 0.8992746 23.98905445 -0.875 24.5625 Z " fill="#FDFDFD" transform="translate(445.4375,50.8125)"/>
<path d="M0 0 C7.2831304 0.46987938 7.2831304 0.46987938 9.60122681 2.18409729 C11.54526046 4.70786311 11.380713 6.43490434 11.38818359 9.60131836 C11.39764008 10.74938461 11.40709656 11.89745087 11.4168396 13.08030701 C11.41076691 14.32095413 11.40469421 15.56160126 11.3984375 16.83984375 C11.40274277 18.75030235 11.40274277 18.75030235 11.40713501 20.69935608 C11.40917849 23.39550223 11.40513332 26.09083509 11.39111328 28.78686523 C11.37403806 32.23819506 11.38385186 35.68882414 11.40183067 39.14012814 C11.41529703 42.43589158 11.40585903 45.73157115 11.3984375 49.02734375 C11.40451019 50.26596664 11.41058289 51.50458954 11.4168396 52.78074646 C11.40738312 53.93196487 11.39792664 55.08318329 11.38818359 56.26928711 C11.38579681 57.28171982 11.38341003 58.29415253 11.38095093 59.33726501 C10.94214507 62.40438896 10.13043495 63.7812965 8 66 C5.84375 66.56640625 5.84375 66.56640625 3.5 66.5625 C2.7265625 66.58441406 1.953125 66.60632813 1.15625 66.62890625 C-1 66 -1 66 -2.61050415 63.8067627 C-4.13204271 60.73327553 -4.37963778 58.86751359 -4.38818359 55.46289062 C-4.39764008 54.37826538 -4.40709656 53.29364014 -4.4168396 52.17614746 C-4.41076691 51.0145813 -4.40469421 49.85301514 -4.3984375 48.65625 C-4.40130768 47.45440063 -4.40417786 46.25255127 -4.40713501 45.01428223 C-4.40917451 42.47582528 -4.40365269 39.93735258 -4.39111328 37.39892578 C-4.37505906 33.51429082 -4.39096695 29.63069636 -4.41015625 25.74609375 C-4.4081738 23.27864354 -4.40433009 20.81119397 -4.3984375 18.34375 C-4.40451019 17.18218384 -4.41058289 16.02061768 -4.4168396 14.82385254 C-4.40738312 13.73922729 -4.39792664 12.65460205 -4.38818359 11.53710938 C-4.38579681 10.58622437 -4.38341003 9.63533936 -4.38095093 8.65563965 C-3.88417398 5.19256749 -2.48983368 2.48983368 0 0 Z " fill="#FEFDFE" transform="translate(49,1)"/>
<path d="M0 0 C0.680625 -0.01933594 1.36125 -0.03867188 2.0625 -0.05859375 C4.8818456 0.66329514 5.51781045 1.97321763 7 4.4375 C7.38095093 7.13819885 7.38095093 7.13819885 7.38818359 10.26000977 C7.39764008 11.43124893 7.40709656 12.6024881 7.4168396 13.80921936 C7.41076691 15.06971603 7.40469421 16.33021271 7.3984375 17.62890625 C7.40130768 18.92569809 7.40417786 20.22248993 7.40713501 21.55857849 C7.41155202 24.29982247 7.40514681 27.04077266 7.39111328 29.78198242 C7.37400427 33.29503231 7.3838765 36.80739545 7.40183067 40.32042027 C7.41527664 43.67330405 7.40586393 47.02600295 7.3984375 50.37890625 C7.40451019 51.64142715 7.41058289 52.90394806 7.4168396 54.20472717 C7.40738312 55.37281418 7.39792664 56.54090118 7.38818359 57.74438477 C7.38579681 58.77378677 7.38341003 59.80318878 7.38095093 60.86378479 C7 63.4375 7 63.4375 5.59683228 65.26841736 C3.60653286 66.72556758 2.44963826 66.8403368 0 66.8125 C-1.0209375 66.82410156 -1.0209375 66.82410156 -2.0625 66.8359375 C-4.64630834 66.30458982 -5.40113038 65.53144578 -7 63.4375 C-7.38095093 60.8190918 -7.38095093 60.8190918 -7.38818359 57.63671875 C-7.39764008 56.4453833 -7.40709656 55.25404785 -7.4168396 54.02661133 C-7.41076691 52.73907959 -7.40469421 51.45154785 -7.3984375 50.125 C-7.40045855 48.79125815 -7.40337026 47.45751737 -7.40713501 46.1237793 C-7.41155696 43.32948274 -7.4051319 40.53547402 -7.39111328 37.74121094 C-7.37402094 34.15975535 -7.38386289 30.57897418 -7.40183067 26.99754333 C-7.41267231 24.24372274 -7.40922054 21.49006199 -7.4014473 18.73623657 C-7.39847329 16.77361615 -7.40758292 14.81098952 -7.4168396 12.84838867 C-7.40265488 11.0613855 -7.40265488 11.0613855 -7.38818359 9.23828125 C-7.38579681 8.18809814 -7.38341003 7.13791504 -7.38095093 6.0559082 C-7 3.4375 -7 3.4375 -5.59683228 1.60205078 C-3.61527926 0.15692774 -2.43798913 0.0046174 0 0 Z " fill="#FEFEFE" transform="translate(110,0.5625)"/>
<path d="M0 0 C3.63 0 7.26 0 11 0 C13.07174777 2.07174777 12.28205978 6.44527279 12.3515625 9.3046875 C12.37471527 10.13960724 12.39786804 10.97452698 12.42172241 11.83474731 C12.46943686 13.6051001 12.51466162 15.37552144 12.55761719 17.14599609 C12.62454835 19.85670831 12.70235934 22.56695634 12.78125 25.27734375 C12.82618039 26.99477454 12.87047222 28.71222218 12.9140625 30.4296875 C12.93796051 31.2422702 12.96185852 32.05485291 12.98648071 32.89205933 C13.06042603 36.21191716 13.05865099 38.82404702 12 42 C8.04 42 4.08 42 0 42 C0 28.14 0 14.28 0 0 Z " fill="#FDFDFD" transform="translate(471,51)"/>
<path d="M0 0 C1.17755859 -0.01160156 1.17755859 -0.01160156 2.37890625 -0.0234375 C3.05824219 0.10804687 3.73757813 0.23953125 4.4375 0.375 C6.90074069 4.06986103 6.82741688 6.00793092 6.4375 10.375 C4.89789301 12.8059584 3.77547009 13.25937865 1.0625 14.1875 C-2.05535425 14.41020387 -3.81420913 13.82548685 -6.5625 12.375 C-8.08741998 9.32516004 -7.79812548 6.7326631 -7.5625 3.375 C-5.37802422 0.35834297 -3.64285923 -0.03600849 0 0 Z " fill="#FCFCFC" transform="translate(414.5625,79.625)"/>
<path d="M0 0 C2 2 2 2 2.25 5.4375 C2 9 2 9 0 12 C-3.66613557 13.14057551 -5.32641693 13.32930728 -8.8125 11.625 C-11 10 -11 10 -12 9 C-12.29629238 5.6667107 -12.35806333 3.63087348 -10.6875 0.6875 C-7.05393192 -2.94606808 -4.349819 -1.75843747 0 0 Z " fill="#FDFDFC" transform="translate(482,36)"/>
<path d="" fill="#000000" transform="translate(0,0)"/>
<path d="" fill="#000000" transform="translate(0,0)"/>
<path d="" fill="#000000" transform="translate(0,0)"/>
<path d="" fill="#000000" transform="translate(0,0)"/>
<path d="" fill="#000000" transform="translate(0,0)"/>
<path d="" fill="#000000" transform="translate(0,0)"/>
<path d="" fill="#000000" transform="translate(0,0)"/>
<path d="" fill="#000000" transform="translate(0,0)"/>
<path d="" fill="#000000" transform="translate(0,0)"/>
<path d="" fill="#000000" transform="translate(0,0)"/>
<path d="" fill="#000000" transform="translate(0,0)"/>
<path d="" fill="#000000" transform="translate(0,0)"/>
<path d="" fill="#000000" transform="translate(0,0)"/>
<path d="" fill="#000000" transform="translate(0,0)"/>
<path d="" fill="#000000" transform="translate(0,0)"/>
<path d="" fill="#000000" transform="translate(0,0)"/>
<path d="" fill="#000000" transform="translate(0,0)"/>
<path d="" fill="#000000" transform="translate(0,0)"/>
<path d="" fill="#000000" transform="translate(0,0)"/>
<path d="" fill="#000000" transform="translate(0,0)"/>
<path d="" fill="#000000" transform="translate(0,0)"/>
<path d="" fill="#000000" transform="translate(0,0)"/>
<path d="" fill="#000000" transform="translate(0,0)"/>
<path d="" fill="#000000" transform="translate(0,0)"/>
<path d="" fill="#000000" transform="translate(0,0)"/>
<path d="" fill="#000000" transform="translate(0,0)"/>
<path d="" fill="#000000" transform="translate(0,0)"/>
<path d="" fill="#000000" transform="translate(0,0)"/>
<path d="" fill="#000000" transform="translate(0,0)"/>
<path d="" fill="#000000" transform="translate(0,0)"/>
<path d="" fill="#000000" transform="translate(0,0)"/>
<path d="" fill="#000000" transform="translate(0,0)"/>
<path d="" fill="#000000" transform="translate(0,0)"/>
<path d="" fill="#000000" transform="translate(0,0)"/>
<path d="" fill="#000000" transform="translate(0,0)"/>
<path d="" fill="#000000" transform="translate(0,0)"/>
<path d="" fill="#000000" transform="translate(0,0)"/>
<path d="" fill="#000000" transform="translate(0,0)"/>
<path d="" fill="#000000" transform="translate(0,0)"/>
<path d="" fill="#000000" transform="translate(0,0)"/>
<path d="" fill="#000000" transform="translate(0,0)"/>
<path d="" fill="#000000" transform="translate(0,0)"/>
<path d="" fill="#000000" transform="translate(0,0)"/>
<path d="" fill="#FFFFFF" transform="translate(0,0)"/>
<path d="" fill="#000000" transform="translate(0,0)"/>
<path d="" fill="#0000FF" transform="translate(0,0)"/>
<path d="" fill="#000000" transform="translate(0,0)"/>
<path d="" fill="#000000" transform="translate(0,0)"/>
<path d="" fill="#000000" transform="translate(0,0)"/>
<path d="" fill="#000000" transform="translate(0,0)"/>
<path d="" fill="#000000" transform="translate(0,0)"/>
<path d="" fill="#000000" transform="translate(0,0)"/>
<path d="" fill="#000000" transform="translate(0,0)"/>
<path d="" fill="#000000" transform="translate(0,0)"/>
<path d="" fill="#000000" transform="translate(0,0)"/>
<path d="" fill="#000000" transform="translate(0,0)"/>
<path d="" fill="#000000" transform="translate(0,0)"/>
<path d="" fill="#000000" transform="translate(0,0)"/>
<path d="" fill="#000000" transform="translate(0,0)"/>
<path d="" fill="#000000" transform="translate(0,0)"/>
<path d="" fill="#000000" transform="translate(0,0)"/>
<path d="" fill="#000000" transform="translate(0,0)"/>
<path d="" fill="#000000" transform="translate(0,0)"/>
<path d="" fill="#000000" transform="translate(0,0)"/>
<path d="" fill="#000000" transform="translate(0,0)"/>
<path d="" fill="#000000" transform="translate(0,0)"/>
<path d="" fill="#000000" transform="translate(0,0)"/>
<path d="" fill="#000000" transform="translate(0,0)"/>
<path d="" fill="#000000" transform="translate(0,0)"/>
<path d="" fill="#000000" transform="translate(0,0)"/>
<path d="" fill="#000000" transform="translate(0,0)"/>
<path d="" fill="#000000" transform="translate(0,0)"/>
<path d="" fill="#000000" transform="translate(0,0)"/>
<path d="" fill="#000000" transform="translate(0,0)"/>
<path d="" fill="#000000" transform="translate(0,0)"/>
<path d="" fill="#000000" transform="translate(0,0)"/>
<path d="" fill="#000000" transform="translate(0,0)"/>
</svg>
