<?xml version="1.0" encoding="UTF-8"?>
<svg version="1.1" xmlns="http://www.w3.org/2000/svg" width="500" height="500">
<path d="M0 0 C3.53774244 0.27747 4.86885486 0.57464022 7.1875 3.25 C7.87406793 8.57870338 6.06838041 12.04652456 3.3125 16.4375 C2.71163574 17.41662354 2.71163574 17.41662354 2.09863281 18.41552734 C-1.87093104 24.68608741 -6.57271873 29.99286846 -11.8125 35.25 C-12.64265625 36.08660156 -13.4728125 36.92320312 -14.328125 37.78515625 C-37.3470454 60.62311029 -66.52606451 71.66868887 -98.77880859 71.55273438 C-116.55165387 71.20732007 -138.5816418 67.69455749 -152.8125 56.25 C-153.83445442 52.8377115 -154.25904982 51.16790797 -152.6875 47.9375 C-150.26177932 45.75435139 -149.08098266 45.47204366 -145.8125 45.25 C-143.07734111 46.21108025 -140.55944187 47.2328642 -137.9375 48.4375 C-112.20559897 59.64760282 -84.88857462 60.1580155 -58.49609375 50.74609375 C-35.15841557 41.26748214 -17.43683689 24.93738674 -4.90625 3.11328125 C-3.2482336 0.28873188 -3.2482336 0.28873188 0 0 Z " fill="#FDFDFD" transform="translate(164.8125,220.75)"/>
<path d="M0 0 C2.76044495 1.39485381 4.64055622 2.94830976 7 5 C7.598125 4.360625 8.19625 3.72125 8.8125 3.0625 C12.64541023 -0.55138678 16.55271607 -0.28718359 21.55859375 -0.20703125 C24.86697289 0.0735193 26.56916119 0.71648475 29 3 C31.58081213 8.05482394 32.36469297 11.70299776 32.29296875 17.46484375 C32.28872391 18.14301651 32.28447906 18.82118927 32.28010559 19.51991272 C32.26347941 21.65953402 32.22586174 23.79816947 32.1875 25.9375 C32.17243222 27.39907482 32.1587475 28.86066458 32.14648438 30.32226562 C32.11362977 33.88182397 32.06196241 37.44081556 32 41 C28.37 41 24.74 41 21 41 C20.970271 39.75126099 20.970271 39.75126099 20.93994141 38.47729492 C20.86179258 35.385235 20.77509794 32.29356617 20.68261719 29.2019043 C20.62555908 27.2070464 20.57835558 25.2119146 20.53125 23.21679688 C20.47324219 21.33637695 20.47324219 21.33637695 20.4140625 19.41796875 C20.3826416 18.26063232 20.3512207 17.1032959 20.31884766 15.91088867 C20.20528967 12.80872972 20.20528967 12.80872972 18 10 C14.56769552 10.26393501 14.56769552 10.26393501 11 11 C8.67547376 14.48678936 8.70226266 16.06967571 8.5859375 20.19921875 C8.54726563 21.40771484 8.50859375 22.61621094 8.46875 23.86132812 C8.42234375 25.7552832 8.42234375 25.7552832 8.375 27.6875 C8.33632813 28.96173828 8.29765625 30.23597656 8.2578125 31.54882812 C8.16342314 34.69907292 8.0778417 37.84930991 8 41 C4.37 41 0.74 41 -3 41 C-3.01458252 40.16750732 -3.02916504 39.33501465 -3.04418945 38.47729492 C-3.1052863 35.38510347 -3.17944556 32.29357918 -3.26245117 29.2019043 C-3.31201319 27.2070937 -3.34651133 25.21192743 -3.38085938 23.21679688 C-3.4340332 21.33637695 -3.4340332 21.33637695 -3.48828125 19.41796875 C-3.51446533 18.26063232 -3.54064941 17.1032959 -3.56762695 15.91088867 C-3.77524412 13.01682885 -3.77524412 13.01682885 -5.34057617 11.09106445 C-7.09612301 9.70585299 -7.09612301 9.70585299 -10.0625 10.125 C-13.29255415 10.74650413 -13.29255415 10.74650413 -15 14 C-15.36887189 16.90644244 -15.36887189 16.90644244 -15.4140625 20.19921875 C-15.47207031 22.01196289 -15.47207031 22.01196289 -15.53125 23.86132812 C-15.57765625 25.7552832 -15.57765625 25.7552832 -15.625 27.6875 C-15.68300781 29.59885742 -15.68300781 29.59885742 -15.7421875 31.54882812 C-15.83657686 34.69907292 -15.9221583 37.84930991 -16 41 C-19.63 41 -23.26 41 -27 41 C-27 27.8 -27 14.6 -27 1 C-23.7 1 -20.4 1 -17 1 C-16.67 1.99 -16.34 2.98 -16 4 C-15.566875 3.525625 -15.13375 3.05125 -14.6875 2.5625 C-10.78530225 -1.05064606 -4.98806477 -0.70827506 0 0 Z " fill="#FEFEFE" transform="translate(279,217)"/>
<path d="M0 0 C3.3 0 6.6 0 10 0 C11.51421001 1.51421001 11.21309856 2.92472768 11.31640625 5.03515625 C11.37924805 6.24848633 11.37924805 6.24848633 11.44335938 7.48632812 C11.48267578 8.33646484 11.52199219 9.18660156 11.5625 10.0625 C11.60568359 10.91650391 11.64886719 11.77050781 11.69335938 12.65039062 C11.79976702 14.76672037 11.90041731 16.88333813 12 19 C12.71285156 18.51402344 13.42570312 18.02804688 14.16015625 17.52734375 C18.68286401 15.09491083 22.987219 15.33015702 28 16 C33.10156284 18.55078142 36.00977865 21.44223268 38.05859375 26.734375 C40.41903192 34.92245098 39.7931569 43.41368621 36 51 C33.4641134 54.88835946 31.54800815 56.91243283 27 58 C21.27469505 58.52907108 16.69379262 58.7550341 12 55 C11.67 55.66 11.34 56.32 11 57 C7.37 57 3.74 57 0 57 C0 38.19 0 19.38 0 0 Z M13 27 C10.0484388 32.80134442 9.17900585 37.66393816 11 44 C13.08441295 47.08801918 14.40183526 47.80909636 17.9375 48.9375 C21.67522816 49.01378017 23.14126272 48.38228107 26 46 C28.41962972 41.96728379 28.58409253 37.59186587 28 33 C26.77408709 29.69003515 25.95431057 27.67725266 23.0625 25.625 C19.22203133 24.46122161 16.13763631 24.57086221 13 27 Z " fill="#FDFDFD" transform="translate(321,201)"/>
<path d="M0 0 C0 2.97 0 5.94 0 9 C-8.25 9 -16.5 9 -25 9 C-25 12.96 -25 16.92 -25 21 C-17.74 21 -10.48 21 -3 21 C-3 23.97 -3 26.94 -3 30 C-10.26 30 -17.52 30 -25 30 C-25 34.62 -25 39.24 -25 44 C-16.42 44 -7.84 44 1 44 C1 46.97 1 49.94 1 53 C-11.21 53 -23.42 53 -36 53 C-36 35.51 -36 18.02 -36 0 C-30.8025 -0.185625 -25.605 -0.37125 -20.25 -0.5625 C-18.61579102 -0.62381104 -16.98158203 -0.68512207 -15.29785156 -0.74829102 C-14.0084668 -0.79139404 -12.71908203 -0.83449707 -11.390625 -0.87890625 C-10.38491455 -0.9189679 -10.38491455 -0.9189679 -9.35888672 -0.95983887 C-5.93053058 -1.06769296 -3.37469437 -0.84367359 0 0 Z " fill="#FEFEFE" transform="translate(243,205)"/>
<path d="M0 0 C3.63 0 7.26 0 11 0 C20 21.1352459 20 21.1352459 20 26 C20.66 26 21.32 26 22 26 C22.09152344 25.22398437 22.18304688 24.44796875 22.27734375 23.6484375 C23.23944752 18.7911136 24.88699723 14.27659382 26.5625 9.625 C26.89185547 8.69816406 27.22121094 7.77132812 27.56054688 6.81640625 C28.36924284 4.54268137 29.18401613 2.27111961 30 0 C33.96 0 37.92 0 42 0 C38.061884 11.66650063 33.87864613 23.24179706 29.5 34.75 C29.06196045 35.93883789 28.6239209 37.12767578 28.17260742 38.35253906 C25.52361679 45.2185982 22.70954058 51.1622755 17 56 C13.60607349 57.13130884 10.94665128 57.1329194 7.375 57.125 C6.20710938 57.12757813 5.03921875 57.13015625 3.8359375 57.1328125 C1 57 1 57 0 56 C0.08937803 54.47480724 0.24537146 52.95318071 0.4375 51.4375 C0.53933594 50.61121094 0.64117187 49.78492188 0.74609375 48.93359375 C0.82988281 48.29550781 0.91367187 47.65742188 1 47 C1.88751953 47.08701172 1.88751953 47.08701172 2.79296875 47.17578125 C3.58316406 47.22089844 4.37335938 47.26601563 5.1875 47.3125 C6.35345703 47.39951172 6.35345703 47.39951172 7.54296875 47.48828125 C11.113278 46.77876033 12.64224694 44.65927743 15 42 C13.43891802 37.7703086 11.87586537 33.5413479 10.3125 29.3125 C9.87744141 28.13365234 9.44238281 26.95480469 8.99414062 25.74023438 C6.36913189 18.64298854 3.68537289 11.57465716 0.90698242 4.53588867 C0 2 0 2 0 0 Z " fill="#FDFDFD" transform="translate(364,218)"/>
<path d="M0 0 C3.50582044 2.60689212 5.191934 5.23885316 5.86987305 9.58325195 C5.89605713 10.56253662 5.92224121 11.54182129 5.94921875 12.55078125 C5.98466797 13.61748047 6.02011719 14.68417969 6.05664062 15.78320312 C6.09047852 17.43739258 6.09047852 17.43739258 6.125 19.125 C6.15916016 20.24712891 6.19332031 21.36925781 6.22851562 22.52539062 C6.31079601 25.28766062 6.38001281 28.04962113 6.4375 30.8125 C7.7575 30.8125 9.0775 30.8125 10.4375 30.8125 C10.9325 35.2675 10.9325 35.2675 11.4375 39.8125 C3.15660112 41.17205056 3.15660112 41.17205056 -0.4375 39.375 C-1.13875 38.859375 -1.84 38.34375 -2.5625 37.8125 C-5.58317791 37.51841415 -5.58317791 37.51841415 -7.625 39.3125 C-11.92100228 41.50620329 -15.8279298 41.36629651 -20.5625 40.8125 C-24.45260137 39.40544206 -25.33095049 38.20613416 -27.4375 34.625 C-28.67749616 30.42279081 -29.24537148 26.93877142 -27.5625 22.8125 C-23.94475077 18.29879786 -20.37643551 16.73262037 -14.875 15.5 C-14.19888672 15.33177734 -13.52277344 15.16355469 -12.82617188 14.99023438 C-7.9950574 13.8125 -7.9950574 13.8125 -5.5625 13.8125 C-5.8925 12.1625 -6.2225 10.5125 -6.5625 8.8125 C-12.89205484 8.37597898 -15.27512437 9.08730353 -20.5625 12.8125 C-22.75 12.9375 -22.75 12.9375 -24.5625 11.8125 C-26.3125 8.75 -26.3125 8.75 -27.5625 5.8125 C-26.31877811 4.82537122 -25.06722782 3.84810095 -23.8125 2.875 C-23.11640625 2.32972656 -22.4203125 1.78445312 -21.703125 1.22265625 C-15.65876328 -2.75912218 -6.60795037 -2.20265012 0 0 Z M-11.0625 22.1875 C-11.8565625 22.44273437 -12.650625 22.69796875 -13.46875 22.9609375 C-15.73279079 23.72372195 -15.73279079 23.72372195 -17.5625 25.8125 C-17.23278521 29.10964793 -16.9398161 30.4351839 -14.5625 32.8125 C-11.06528106 32.88466639 -11.06528106 32.88466639 -7.5625 31.8125 C-5.03759079 28.96179605 -4.59021892 27.30220099 -4.375 23.5 C-4.436875 22.613125 -4.49875 21.72625 -4.5625 20.8125 C-6.97286522 20.8125 -8.77219479 21.43645836 -11.0625 22.1875 Z " fill="#FDFDFD" transform="translate(457.5625,218.1875)"/>
<path d="M0 0 C7.08129634 -0.67440918 7.08129634 -0.67440918 9.59902954 1.17382812 C11.54387766 3.7089472 11.38071199 5.44090476 11.38818359 8.6171875 C11.39764008 9.76848145 11.40709656 10.91977539 11.4168396 12.10595703 C11.41076691 13.34974121 11.40469421 14.59352539 11.3984375 15.875 C11.40274277 17.78901611 11.40274277 17.78901611 11.40713501 19.74169922 C11.40917835 22.44204116 11.40513392 25.14157081 11.39111328 27.84179688 C11.37402089 31.3021923 11.38386307 34.76188971 11.40183067 38.22225952 C11.41528016 41.52319806 11.40586244 44.82405236 11.3984375 48.125 C11.40754654 49.99067627 11.40754654 49.99067627 11.4168396 51.89404297 C11.40738312 53.04533691 11.39792664 54.19663086 11.38818359 55.3828125 C11.38579681 56.39746582 11.38341003 57.41211914 11.38095093 58.45751953 C10.94154696 61.39011773 10.35149226 62.25740113 8 64 C4.81719945 65.17261073 3.51172091 65.22119666 0.37339783 63.86462402 C-2 62 -2 62 -2.61473083 59.41955566 C-2.60966019 58.38713745 -2.60458954 57.35471924 -2.59936523 56.29101562 C-2.60544296 55.11970093 -2.61152069 53.94838623 -2.61778259 52.74157715 C-2.59825027 51.47591919 -2.57871796 50.21026123 -2.55859375 48.90625 C-2.55626236 47.60804321 -2.55393097 46.30983643 -2.55152893 44.97229004 C-2.54536369 42.22483178 -2.52266829 39.47818891 -2.48706055 36.73095703 C-2.44178714 33.21011053 -2.42703475 29.69000259 -2.42332363 26.16889191 C-2.41782844 22.81040331 -2.39445009 19.45216446 -2.37109375 16.09375 C-2.36573105 14.82809204 -2.36036835 13.56243408 -2.35484314 12.25842285 C-2.33885574 11.08710815 -2.32286835 9.91579346 -2.30639648 8.70898438 C-2.29575668 7.67656616 -2.28511688 6.64414795 -2.27415466 5.58044434 C-2 3 -2 3 0 0 Z " fill="#FEFEFE" transform="translate(108,168)"/>
<path d="M0 0 C2.62118265 0.48271284 3.35442461 1.2555004 4.97265625 3.36328125 C5.36706543 5.89903259 5.36706543 5.89903259 5.39257812 8.96459961 C5.40848999 10.11266586 5.42440186 11.26073212 5.4407959 12.44358826 C5.44099731 13.68423538 5.44119873 14.92488251 5.44140625 16.203125 C5.44901978 17.47676407 5.4566333 18.75040314 5.46447754 20.06263733 C5.47529357 22.75879018 5.47949144 25.45406739 5.47363281 28.15014648 C5.46773725 31.60179382 5.49831812 35.05203421 5.53874969 38.50340939 C5.57084633 41.79912184 5.56651041 45.0947803 5.56640625 48.390625 C5.58280151 49.62924789 5.59919678 50.86787079 5.61608887 52.14402771 C5.60678345 53.29524612 5.59747803 54.44646454 5.58789062 55.63256836 C5.58994507 56.64500107 5.59199951 57.65743378 5.59411621 58.70054626 C4.97265625 61.36328125 4.97265625 61.36328125 2.63342285 63.72926331 C-0.02734375 65.36328125 -0.02734375 65.36328125 -3.21484375 65.23828125 C-6.02734375 64.36328125 -6.02734375 64.36328125 -8.02734375 62.36328125 C-8.28131104 59.85839844 -8.28131104 59.85839844 -8.28613281 56.66015625 C-8.29243713 55.46551758 -8.29874146 54.27087891 -8.30523682 53.04003906 C-8.30118835 51.74420898 -8.29713989 50.44837891 -8.29296875 49.11328125 C-8.29431553 47.77571543 -8.29625618 46.43815008 -8.29876709 45.10058594 C-8.30171775 42.29617659 -8.29742269 39.49189456 -8.28808594 36.6875 C-8.27669129 33.08923203 -8.28325109 29.49126239 -8.29523087 25.89300537 C-8.30245111 23.13067367 -8.30016081 20.36841292 -8.29497528 17.6060791 C-8.2929885 15.63289192 -8.29907217 13.65970199 -8.30523682 11.68652344 C-8.2989325 10.49188477 -8.29262817 9.29724609 -8.28613281 8.06640625 C-8.28454163 7.01098633 -8.28295044 5.95556641 -8.28131104 4.86816406 C-7.75090014 -0.36328584 -4.53524436 0.1102022 0 0 Z " fill="#FDFDFD" transform="translate(57.02734375,167.63671875)"/>
<path d="M0 0 C3.63 0 7.26 0 11 0 C11 13.2 11 26.4 11 40 C7.37 40 3.74 40 0 40 C0 26.8 0 13.6 0 0 Z " fill="#FEFEFE" transform="translate(474,218)"/>
<path d="M0 0 C1.9375 1.0625 1.9375 1.0625 3 3 C3.4375 6.5 3.4375 6.5 3 10 C1.4375 12 1.4375 12 -1 13 C-7.32727273 12.67272727 -7.32727273 12.67272727 -10 10 C-10.54587156 3.99541284 -10.54587156 3.99541284 -8.9375 1.0625 C-5.88023824 -0.6140629 -3.4093712 -0.36528977 0 0 Z " fill="#FCFCFC" transform="translate(420,246)"/>
<path d="M0 0 C3.375 0.875 3.375 0.875 5.375 2.875 C5.71990322 6.92761287 5.67663882 8.42254176 3.375 11.875 C0.34030423 12.73263141 -1.84566157 13.04350561 -4.9375 12.375 C-6.625 10.875 -6.625 10.875 -7.625 7.5 C-7.625 3.875 -7.625 3.875 -6.125 1.375 C-3.625 -0.125 -3.625 -0.125 0 0 Z " fill="#FDFDFD" transform="translate(480.625,201.125)"/>
<path d="" fill="#000000" transform="translate(0,0)"/>
<path d="" fill="#000000" transform="translate(0,0)"/>
<path d="" fill="#000000" transform="translate(0,0)"/>
<path d="" fill="#000000" transform="translate(0,0)"/>
<path d="" fill="#000000" transform="translate(0,0)"/>
<path d="" fill="#000000" transform="translate(0,0)"/>
<path d="" fill="#000000" transform="translate(0,0)"/>
<path d="" fill="#000000" transform="translate(0,0)"/>
<path d="" fill="#000000" transform="translate(0,0)"/>
<path d="" fill="#000000" transform="translate(0,0)"/>
<path d="" fill="#000000" transform="translate(0,0)"/>
<path d="" fill="#000000" transform="translate(0,0)"/>
<path d="" fill="#000000" transform="translate(0,0)"/>
<path d="" fill="#000000" transform="translate(0,0)"/>
<path d="" fill="#000000" transform="translate(0,0)"/>
<path d="" fill="#000000" transform="translate(0,0)"/>
<path d="" fill="#000000" transform="translate(0,0)"/>
<path d="" fill="#000000" transform="translate(0,0)"/>
<path d="" fill="#000000" transform="translate(0,0)"/>
<path d="" fill="#000000" transform="translate(0,0)"/>
<path d="" fill="#000000" transform="translate(0,0)"/>
<path d="" fill="#000000" transform="translate(0,0)"/>
<path d="" fill="#000000" transform="translate(0,0)"/>
<path d="" fill="#000000" transform="translate(0,0)"/>
<path d="" fill="#000000" transform="translate(0,0)"/>
<path d="" fill="#000000" transform="translate(0,0)"/>
<path d="" fill="#000000" transform="translate(0,0)"/>
<path d="" fill="#000000" transform="translate(0,0)"/>
<path d="" fill="#000000" transform="translate(0,0)"/>
<path d="" fill="#000000" transform="translate(0,0)"/>
<path d="" fill="#000000" transform="translate(0,0)"/>
<path d="" fill="#000000" transform="translate(0,0)"/>
<path d="" fill="#000000" transform="translate(0,0)"/>
<path d="" fill="#000000" transform="translate(0,0)"/>
<path d="" fill="#000000" transform="translate(0,0)"/>
<path d="" fill="#000000" transform="translate(0,0)"/>
<path d="" fill="#000000" transform="translate(0,0)"/>
<path d="" fill="#000000" transform="translate(0,0)"/>
<path d="" fill="#000000" transform="translate(0,0)"/>
<path d="" fill="#000000" transform="translate(0,0)"/>
<path d="" fill="#000000" transform="translate(0,0)"/>
<path d="" fill="#000000" transform="translate(0,0)"/>
<path d="" fill="#000000" transform="translate(0,0)"/>
<path d="" fill="#000000" transform="translate(0,0)"/>
<path d="" fill="#000000" transform="translate(0,0)"/>
<path d="" fill="#000000" transform="translate(0,0)"/>
<path d="" fill="#000000" transform="translate(0,0)"/>
<path d="" fill="#000000" transform="translate(0,0)"/>
<path d="" fill="#000000" transform="translate(0,0)"/>
<path d="" fill="#000000" transform="translate(0,0)"/>
<path d="" fill="#000000" transform="translate(0,0)"/>
<path d="" fill="#000000" transform="translate(0,0)"/>
<path d="" fill="#000000" transform="translate(0,0)"/>
<path d="" fill="#000000" transform="translate(0,0)"/>
<path d="" fill="#000000" transform="translate(0,0)"/>
<path d="" fill="#000000" transform="translate(0,0)"/>
<path d="" fill="#000000" transform="translate(0,0)"/>
<path d="" fill="#000000" transform="translate(0,0)"/>
<path d="" fill="#000000" transform="translate(0,0)"/>
<path d="" fill="#000000" transform="translate(0,0)"/>
<path d="" fill="#000000" transform="translate(0,0)"/>
<path d="" fill="#000000" transform="translate(0,0)"/>
<path d="" fill="#000000" transform="translate(0,0)"/>
<path d="" fill="#000000" transform="translate(0,0)"/>
<path d="" fill="#000000" transform="translate(0,0)"/>
<path d="" fill="#000000" transform="translate(0,0)"/>
<path d="" fill="#000000" transform="translate(0,0)"/>
<path d="" fill="#000000" transform="translate(0,0)"/>
<path d="" fill="#000000" transform="translate(0,0)"/>
<path d="" fill="#000000" transform="translate(0,0)"/>
<path d="" fill="#000000" transform="translate(0,0)"/>
<path d="" fill="#000000" transform="translate(0,0)"/>
<path d="" fill="#000000" transform="translate(0,0)"/>
<path d="" fill="#000000" transform="translate(0,0)"/>
<path d="" fill="#000000" transform="translate(0,0)"/>
<path d="" fill="#000000" transform="translate(0,0)"/>
<path d="" fill="#000000" transform="translate(0,0)"/>
<path d="" fill="#000000" transform="translate(0,0)"/>
<path d="" fill="#000000" transform="translate(0,0)"/>
<path d="" fill="#000000" transform="translate(0,0)"/>
<path d="" fill="#000000" transform="translate(0,0)"/>
</svg>
