<?xml version="1.0" encoding="UTF-8"?>
<svg version="1.1" xmlns="http://www.w3.org/2000/svg" width="500" height="500">
<path d="M0 0 C3.625 0.25 3.625 0.25 5.5625 1.375 C7.11884618 4.12149326 6.86995581 6.12210279 6.625 9.25 C3.04543862 17.43824666 -2.62386002 24.48867974 -8.375 31.25 C-8.92800781 31.93707031 -9.48101562 32.62414062 -10.05078125 33.33203125 C-14.83536287 39.1214892 -20.44388314 43.67480467 -26.375 48.25 C-27.09816406 48.83523438 -27.82132812 49.42046875 -28.56640625 50.0234375 C-52.12906408 67.97995313 -84.0070063 74.33548682 -113.0625 70.75390625 C-126.6598208 68.71292598 -140.66335356 64.55232129 -152.375 57.25 C-154.375 54.25 -154.375 54.25 -154.25 51.25 C-153.375 48.25 -153.375 48.25 -151.6875 46.3125 C-148.50945359 44.85231651 -146.76570084 45.47661085 -143.375 46.25 C-141.22704917 47.13365066 -139.1027307 48.07606458 -137 49.0625 C-112.24502334 60.21348108 -83.76083421 60.02872075 -58.5 50.5625 C-35.76985591 40.63667289 -18.34965176 25.08430381 -5.8359375 3.734375 C-3.80571115 0.28190453 -3.80571115 0.28190453 0 0 Z " fill="#000000" transform="translate(165.375,220.75)"/>
<path d="M0 0 C3.08073848 1.3831887 4.6384567 2.6384567 7 5 C7.763125 4.175 8.52625 3.35 9.3125 2.5 C13.08828235 -0.64798006 16.59328069 -0.65848451 21.37109375 -0.41796875 C25.14448398 0.18196105 27.26975778 1.33976399 30 4 C31.93103224 8.55260491 32.23594145 12.45108476 32.1953125 17.3671875 C32.1924826 18.04677521 32.18965271 18.72636292 32.18673706 19.42654419 C32.17562964 21.57621608 32.15054391 23.72545614 32.125 25.875 C32.11495795 27.34113977 32.10583425 28.80728614 32.09765625 30.2734375 C32.07572159 33.84909631 32.04125814 37.42450594 32 41 C28.37 41 24.74 41 21 41 C20.98541748 40.16750732 20.97083496 39.33501465 20.95581055 38.47729492 C20.8947137 35.38510347 20.82055444 32.29357918 20.73754883 29.2019043 C20.68798681 27.2070937 20.65348867 25.21192743 20.61914062 23.21679688 C20.58369141 21.96318359 20.54824219 20.70957031 20.51171875 19.41796875 C20.48553467 18.26063232 20.45935059 17.1032959 20.43237305 15.91088867 C20.22475588 13.01682885 20.22475588 13.01682885 18.65942383 11.09106445 C16.90387699 9.70585299 16.90387699 9.70585299 13.9375 10.125 C10.70744585 10.74650413 10.70744585 10.74650413 9 14 C8.63112811 16.90644244 8.63112811 16.90644244 8.5859375 20.19921875 C8.54726563 21.40771484 8.50859375 22.61621094 8.46875 23.86132812 C8.42234375 25.7552832 8.42234375 25.7552832 8.375 27.6875 C8.33632813 28.96173828 8.29765625 30.23597656 8.2578125 31.54882812 C8.16342314 34.69907292 8.0778417 37.84930991 8 41 C4.37 41 0.74 41 -3 41 C-3.02505615 40.19780029 -3.0501123 39.39560059 -3.07592773 38.5690918 C-3.19182043 34.94172926 -3.31457751 31.31463083 -3.4375 27.6875 C-3.47681641 26.42486328 -3.51613281 25.16222656 -3.55664062 23.86132812 C-3.59853516 22.65283203 -3.64042969 21.44433594 -3.68359375 20.19921875 C-3.72025146 19.08377686 -3.75690918 17.96833496 -3.79467773 16.8190918 C-3.88931209 13.92126429 -3.88931209 13.92126429 -5 11 C-7.80045046 10.14349347 -7.80045046 10.14349347 -11 10 C-13.89346741 12.12605251 -14.8835651 13.37450091 -15.54589844 16.93261719 C-15.5668457 18.04282227 -15.58779297 19.15302734 -15.609375 20.296875 C-15.64160156 21.50214844 -15.67382812 22.70742187 -15.70703125 23.94921875 C-15.72830078 25.83060547 -15.72830078 25.83060547 -15.75 27.75 C-15.77964844 29.01972656 -15.80929687 30.28945312 -15.83984375 31.59765625 C-15.91053951 34.73183485 -15.96324012 37.86526956 -16 41 C-19.63 41 -23.26 41 -27 41 C-27 27.8 -27 14.6 -27 1 C-23.7 1 -20.4 1 -17 1 C-16.67 1.99 -16.34 2.98 -16 4 C-15.401875 3.34 -14.80375 2.68 -14.1875 2 C-9.55122999 -0.90903216 -5.34202138 -0.68281476 0 0 Z " fill="#000000" transform="translate(279,217)"/>
<path d="M0 0 C3.3 0 6.6 0 10 0 C11.51421001 1.51421001 11.21309856 2.92472768 11.31640625 5.03515625 C11.37924805 6.24848633 11.37924805 6.24848633 11.44335938 7.48632812 C11.48267578 8.33646484 11.52199219 9.18660156 11.5625 10.0625 C11.60568359 10.91650391 11.64886719 11.77050781 11.69335938 12.65039062 C11.79976702 14.76672037 11.90041731 16.88333813 12 19 C12.71285156 18.51402344 13.42570312 18.02804688 14.16015625 17.52734375 C18.68945304 15.09136707 22.98069292 15.34306128 28 16 C32.90946693 18.32083891 35.35714805 21.30159653 38 26 C40.34782793 33.09044034 40.14890667 42.25128867 37.3125 49.125 C35.10205974 53.35708846 32.26801488 55.86599256 28 58 C16.76206434 58.94101877 16.76206434 58.94101877 12 55 C11.67 55.66 11.34 56.32 11 57 C7.37 57 3.74 57 0 57 C0 38.19 0 19.38 0 0 Z M14.375 26.4375 C11.09130289 29.98043636 10.32199121 33.23453009 10 38 C10.62202343 42.21593655 11.38731204 44.29978519 14.1875 47.5 C17.95738812 49.510607 19.94772627 49.2006737 24 48 C27.86051314 43.8936523 28.14239983 39.45307577 28 34 C27.21721463 30.4612926 26.05426288 27.78219504 23.0625 25.5625 C19.63050717 24.62650196 17.48399985 24.73495246 14.375 26.4375 Z " fill="#000000" transform="translate(321,201)"/>
<path d="M0 0 C11.88 0 23.76 0 36 0 C36 3.3 36 6.6 36 10 C27.75 10 19.5 10 11 10 C11 13.96 11 17.92 11 22 C18.26 22 25.52 22 33 22 C33 24.97 33 27.94 33 31 C25.74 31 18.48 31 11 31 C11 35.62 11 40.24 11 45 C19.58 45 28.16 45 37 45 C37 47.97 37 50.94 37 54 C24.79 54 12.58 54 0 54 C0 36.18 0 18.36 0 0 Z " fill="#000000" transform="translate(207,204)"/>
<path d="M0 0 C3.63 0 7.26 0 11 0 C20 19.33333333 20 19.33333333 20 26 C20.66 26 21.32 26 22 26 C22.309375 24.2984375 22.309375 24.2984375 22.625 22.5625 C24.31648767 14.82643138 27.28945991 7.42415226 30 0 C33.96 0 37.92 0 42 0 C38.14194857 11.31865421 34.10852749 22.56604735 29.875 33.75 C29.26422607 35.3904126 29.26422607 35.3904126 28.64111328 37.06396484 C23.19731879 51.31086433 23.19731879 51.31086433 17.640625 55.984375 C14.21966737 57.30012793 11.40634689 57.32649261 7.75 57.25 C6.50734375 57.23453125 5.2646875 57.2190625 3.984375 57.203125 C1 57 1 57 0 56 C0.08937803 54.47480724 0.24537146 52.95318071 0.4375 51.4375 C0.53933594 50.61121094 0.64117187 49.78492188 0.74609375 48.93359375 C0.82988281 48.29550781 0.91367187 47.65742188 1 47 C1.60328125 47.03480469 2.2065625 47.06960938 2.828125 47.10546875 C7.92525488 47.3514449 7.92525488 47.3514449 12.5625 45.5 C13.036875 45.005 13.51125 44.51 14 44 C13.4772604 38.20223254 12.28734512 33.46292126 10.05859375 28.10546875 C9.6278933 27.03441643 9.6278933 27.03441643 9.18849182 25.94172668 C8.28042095 23.68657928 7.35995986 21.43679561 6.4375 19.1875 C5.51304307 16.91977805 4.59141589 14.65102018 3.67579651 12.37971497 C3.1081707 10.97293022 2.5352387 9.56827203 1.95640564 8.1660614 C0.78605634 5.27646996 0 3.15038708 0 0 Z " fill="#010101" transform="translate(364,218)"/>
<path d="M0 0 C2.99207891 1.88582641 4.53616402 4.02382681 5.82421875 7.2421875 C6.14306641 9.89941406 6.14306641 9.89941406 6.23828125 12.8828125 C6.29628906 14.48769531 6.29628906 14.48769531 6.35546875 16.125 C6.38640625 17.23617187 6.41734375 18.34734375 6.44921875 19.4921875 C6.50722656 21.18214844 6.50722656 21.18214844 6.56640625 22.90625 C6.66059211 25.68473298 6.74621461 28.46321084 6.82421875 31.2421875 C8.14421875 31.5721875 9.46421875 31.9021875 10.82421875 32.2421875 C11.31921875 35.7071875 11.31921875 35.7071875 11.82421875 39.2421875 C8.12295016 41.70969989 6.20198343 41.54939906 1.82421875 41.2421875 C-0.89161043 40.21457646 -2.10809559 39.30987316 -4.17578125 37.2421875 C-4.77390625 37.9021875 -5.37203125 38.5621875 -5.98828125 39.2421875 C-10.64619712 42.16480138 -14.81311498 42.01277591 -20.17578125 41.2421875 C-24.08538262 39.45886056 -25.63233404 38.28182565 -27.61328125 34.4921875 C-28.28824195 30.59241455 -28.61194596 26.98776279 -27.17578125 23.2421875 C-23.41962154 18.52218303 -20.01064622 17.17805239 -14.36328125 15.9296875 C-13.67041016 15.76146484 -12.97753906 15.59324219 -12.26367188 15.41992188 C-10.57146411 15.01145793 -8.87407259 14.62457008 -7.17578125 14.2421875 C-6.84578125 12.5921875 -6.51578125 10.9421875 -6.17578125 9.2421875 C-12.50533609 8.80566648 -14.88840562 9.51699103 -20.17578125 13.2421875 C-22.36328125 13.3671875 -22.36328125 13.3671875 -24.17578125 12.2421875 C-25.92578125 9.1796875 -25.92578125 9.1796875 -27.17578125 6.2421875 C-19.46545053 -0.57159314 -10.3105905 -3.59112129 0 0 Z M-15.17578125 24.2421875 C-16.8391221 26.75970626 -16.8391221 26.75970626 -17.17578125 29.2421875 C-15.51032786 31.40860415 -15.51032786 31.40860415 -13.17578125 33.2421875 C-10.39058006 33.17425576 -8.79231012 32.6165086 -6.42578125 31.1796875 C-4.41672471 28.06564986 -4.47612318 24.90635903 -4.17578125 21.2421875 C-8.02429103 21.2421875 -11.73581503 22.57747795 -15.17578125 24.2421875 Z " fill="#010101" transform="translate(457.17578125,217.7578125)"/>
<path d="M0 0 C2.27200772 3.40801158 2.25251474 4.6162343 2.25878906 8.6171875 C2.26509338 9.76848145 2.27139771 10.91977539 2.27789307 12.10595703 C2.2738446 13.34974121 2.26979614 14.59352539 2.265625 15.875 C2.26753845 17.15101074 2.2694519 18.42702148 2.27142334 19.74169922 C2.27278548 22.44186929 2.27008891 25.14167831 2.26074219 27.84179688 C2.2493477 31.3020583 2.25590913 34.76200947 2.26788712 38.22225952 C2.2768534 41.52318414 2.27057493 44.82407133 2.265625 48.125 C2.26967346 49.36878418 2.27372192 50.61256836 2.27789307 51.89404297 C2.27158875 53.04533691 2.26528442 54.19663086 2.25878906 55.3828125 C2.25640228 56.90479248 2.25640228 56.90479248 2.25396729 58.45751953 C2 61 2 61 0 64 C-5.96277916 65.54590571 -5.96277916 65.54590571 -9.375 63.75 C-12.20428825 60.70307419 -12.13225446 57.74705948 -12.16113281 53.78173828 C-12.17074036 52.71698273 -12.1803479 51.65222717 -12.19024658 50.5552063 C-12.19449646 49.40519135 -12.19874634 48.25517639 -12.203125 47.0703125 C-12.20882507 45.88782928 -12.21452515 44.70534607 -12.22039795 43.48703003 C-12.22984965 40.98371272 -12.2363826 38.48038297 -12.24023438 35.97705078 C-12.24994362 32.14724039 -12.2809678 28.31796574 -12.3125 24.48828125 C-12.31902969 22.05729486 -12.32428029 19.62630462 -12.328125 17.1953125 C-12.3404718 16.04934601 -12.3528186 14.90337952 -12.36553955 13.72268677 C-12.36253845 12.65162689 -12.35953735 11.58056702 -12.35644531 10.47705078 C-12.36009094 9.53789825 -12.36373657 8.59874573 -12.36749268 7.63113403 C-11.92170044 4.43939931 -10.92629288 2.56826106 -9 0 C-5.46474216 -1.17841928 -3.5797952 -0.91399027 0 0 Z " fill="#000000" transform="translate(117,168)"/>
<path d="M0 0 C1.63298035 1.19580078 1.63298035 1.19580078 3 3 C3.3742218 5.54248047 3.3742218 5.54248047 3.37231445 8.6171875 C3.37854324 9.76848145 3.38477203 10.91977539 3.39118958 12.10595703 C3.38197983 13.34974121 3.37277008 14.59352539 3.36328125 15.875 C3.36377975 17.15101074 3.36427826 18.42702148 3.36479187 19.74169922 C3.36244926 22.44203751 3.35428305 25.1415943 3.33618164 27.84179688 C3.31349427 31.30207866 3.31295071 34.76192383 3.31969929 38.22225952 C3.32384507 41.52320591 3.31186649 44.82407481 3.30078125 48.125 C3.30214836 49.99067627 3.30214836 49.99067627 3.30354309 51.89404297 C3.29401108 53.04533691 3.28447906 54.19663086 3.2746582 55.3828125 C3.27005081 56.39746582 3.26544342 57.41211914 3.26069641 58.45751953 C3 61 3 61 1 64 C-4.96277916 65.54590571 -4.96277916 65.54590571 -8.375 63.75 C-11.20428825 60.70307419 -11.13225446 57.74705948 -11.16113281 53.78173828 C-11.17074036 52.71698273 -11.1803479 51.65222717 -11.19024658 50.5552063 C-11.19449646 49.40519135 -11.19874634 48.25517639 -11.203125 47.0703125 C-11.20882507 45.88782928 -11.21452515 44.70534607 -11.22039795 43.48703003 C-11.22984965 40.98371272 -11.2363826 38.48038297 -11.24023438 35.97705078 C-11.24994362 32.14724039 -11.2809678 28.31796574 -11.3125 24.48828125 C-11.31902969 22.05729486 -11.32428029 19.62630462 -11.328125 17.1953125 C-11.3404718 16.04934601 -11.3528186 14.90337952 -11.36553955 13.72268677 C-11.36253845 12.65162689 -11.35953735 11.58056702 -11.35644531 10.47705078 C-11.36009094 9.53789825 -11.36373657 8.59874573 -11.36749268 7.63113403 C-10.92170044 4.43939931 -9.92629288 2.56826106 -8 0 C-4.65044556 -1.11651815 -3.32740404 -0.99822121 0 0 Z " fill="#000000" transform="translate(59,168)"/>
<path d="M0 0 C3.63 0 7.26 0 11 0 C11 13.2 11 26.4 11 40 C7.37 40 3.74 40 0 40 C0 26.8 0 13.6 0 0 Z " fill="#000000" transform="translate(474,218)"/>
<path d="M0 0 C1.9375 1.0625 1.9375 1.0625 3 3 C3.4375 6.5 3.4375 6.5 3 10 C1.4375 12 1.4375 12 -1 13 C-7.32727273 12.67272727 -7.32727273 12.67272727 -10 10 C-10.54587156 3.99541284 -10.54587156 3.99541284 -8.9375 1.0625 C-5.88023824 -0.6140629 -3.4093712 -0.36528977 0 0 Z " fill="#000000" transform="translate(420,246)"/>
<path d="M0 0 C1.9375 1.0625 1.9375 1.0625 3 3 C3.4375 6.5 3.4375 6.5 3 10 C1.4375 12 1.4375 12 -1 13 C-4.625 12.875 -4.625 12.875 -8 12 C-10.31282587 8.53076119 -10.42478586 7.07794425 -10 3 C-7.72054654 -1.02256493 -4.21158603 -0.45124136 0 0 Z " fill="#010101" transform="translate(483,201)"/>
<path d="" fill="#FFFFFF" transform="translate(0,0)"/>
<path d="" fill="#FFFFFF" transform="translate(0,0)"/>
<path d="" fill="#FFFFFF" transform="translate(0,0)"/>
<path d="" fill="#FFFFFF" transform="translate(0,0)"/>
<path d="" fill="#FFFFFF" transform="translate(0,0)"/>
<path d="" fill="#FFFFFF" transform="translate(0,0)"/>
<path d="" fill="#FFFFFF" transform="translate(0,0)"/>
<path d="" fill="#FFFFFF" transform="translate(0,0)"/>
<path d="" fill="#FFFFFF" transform="translate(0,0)"/>
<path d="" fill="#FFFFFF" transform="translate(0,0)"/>
<path d="" fill="#FFFFFF" transform="translate(0,0)"/>
<path d="" fill="#FFFFFF" transform="translate(0,0)"/>
<path d="" fill="#FFFFFF" transform="translate(0,0)"/>
<path d="" fill="#FFFFFF" transform="translate(0,0)"/>
<path d="" fill="#FFFFFF" transform="translate(0,0)"/>
<path d="" fill="#FFFFFF" transform="translate(0,0)"/>
<path d="" fill="#FFFFFF" transform="translate(0,0)"/>
<path d="" fill="#FFFFFF" transform="translate(0,0)"/>
<path d="" fill="#FFFFFF" transform="translate(0,0)"/>
<path d="" fill="#FFFFFF" transform="translate(0,0)"/>
<path d="" fill="#FFFFFF" transform="translate(0,0)"/>
<path d="" fill="#FFFFFF" transform="translate(0,0)"/>
<path d="" fill="#FFFFFF" transform="translate(0,0)"/>
<path d="" fill="#FFFFFF" transform="translate(0,0)"/>
<path d="" fill="#FFFFFF" transform="translate(0,0)"/>
<path d="" fill="#FFFFFF" transform="translate(0,0)"/>
<path d="" fill="#FFFFFF" transform="translate(0,0)"/>
<path d="" fill="#FFFFFF" transform="translate(0,0)"/>
<path d="" fill="#FFFFFF" transform="translate(0,0)"/>
<path d="" fill="#FFFFFF" transform="translate(0,0)"/>
<path d="" fill="#FFFFFF" transform="translate(0,0)"/>
<path d="" fill="#FFFFFF" transform="translate(0,0)"/>
<path d="" fill="#FFFFFF" transform="translate(0,0)"/>
<path d="" fill="#FFFFFF" transform="translate(0,0)"/>
<path d="" fill="#FFFFFF" transform="translate(0,0)"/>
<path d="" fill="#FFFFFF" transform="translate(0,0)"/>
<path d="" fill="#FFFFFF" transform="translate(0,0)"/>
<path d="" fill="#FFFFFF" transform="translate(0,0)"/>
<path d="" fill="#FFFFFF" transform="translate(0,0)"/>
<path d="" fill="#FFFFFF" transform="translate(0,0)"/>
<path d="" fill="#FFFFFF" transform="translate(0,0)"/>
<path d="" fill="#FFFFFF" transform="translate(0,0)"/>
<path d="" fill="#FFFFFF" transform="translate(0,0)"/>
<path d="" fill="#FFFFFF" transform="translate(0,0)"/>
<path d="" fill="#FFFFFF" transform="translate(0,0)"/>
<path d="" fill="#FFFFFF" transform="translate(0,0)"/>
<path d="" fill="#FFFFFF" transform="translate(0,0)"/>
<path d="" fill="#FFFFFF" transform="translate(0,0)"/>
<path d="" fill="#FFFFFF" transform="translate(0,0)"/>
<path d="" fill="#FFFFFF" transform="translate(0,0)"/>
<path d="" fill="#FFFFFF" transform="translate(0,0)"/>
<path d="" fill="#FFFFFF" transform="translate(0,0)"/>
<path d="" fill="#FFFFFF" transform="translate(0,0)"/>
<path d="" fill="#FFFFFF" transform="translate(0,0)"/>
<path d="" fill="#FFFFFF" transform="translate(0,0)"/>
<path d="" fill="#FFFFFF" transform="translate(0,0)"/>
<path d="" fill="#FFFFFF" transform="translate(0,0)"/>
<path d="" fill="#FFFFFF" transform="translate(0,0)"/>
<path d="" fill="#FFFFFF" transform="translate(0,0)"/>
<path d="" fill="#FFFFFF" transform="translate(0,0)"/>
<path d="" fill="#FFFFFF" transform="translate(0,0)"/>
<path d="" fill="#FFFFFF" transform="translate(0,0)"/>
<path d="" fill="#FFFFFF" transform="translate(0,0)"/>
<path d="" fill="#FFFFFF" transform="translate(0,0)"/>
<path d="" fill="#FFFFFF" transform="translate(0,0)"/>
<path d="" fill="#FFFFFF" transform="translate(0,0)"/>
<path d="" fill="#FFFFFF" transform="translate(0,0)"/>
<path d="" fill="#FFFFFF" transform="translate(0,0)"/>
<path d="" fill="#FFFFFF" transform="translate(0,0)"/>
<path d="" fill="#FFFFFF" transform="translate(0,0)"/>
<path d="" fill="#FFFFFF" transform="translate(0,0)"/>
<path d="" fill="#FFFFFF" transform="translate(0,0)"/>
<path d="" fill="#FFFFFF" transform="translate(0,0)"/>
<path d="" fill="#FFFFFF" transform="translate(0,0)"/>
<path d="" fill="#FFFFFF" transform="translate(0,0)"/>
<path d="" fill="#FFFFFF" transform="translate(0,0)"/>
<path d="" fill="#FFFFFF" transform="translate(0,0)"/>
<path d="" fill="#FFFFFF" transform="translate(0,0)"/>
<path d="" fill="#FFFFFF" transform="translate(0,0)"/>
</svg>
